<mxfile host="app.diagrams.net" modified="2023-11-12T20:06:58.441Z" agent="Mozilla/5.0 (Windows NT 10.0; Win64; x64; rv:109.0) Gecko/20100101 Firefox/119.0" etag="7SyO1P6T7WqsSFn0AbDs" version="21.2.1" type="device">
  <diagram name="Page-1" id="wXPEoETuWakTY9OTKl-D">
    <mxGraphModel dx="2045" dy="782" grid="1" gridSize="10" guides="1" tooltips="1" connect="1" arrows="1" fold="1" page="1" pageScale="1" pageWidth="827" pageHeight="1169" math="0" shadow="0">
      <root>
        <mxCell id="0" />
        <mxCell id="1" parent="0" />
        <mxCell id="RXBE-0DyEpsFYjpxkidJ-38" style="edgeStyle=orthogonalEdgeStyle;rounded=0;orthogonalLoop=1;jettySize=auto;html=1;" edge="1" parent="1" source="RXBE-0DyEpsFYjpxkidJ-7" target="RXBE-0DyEpsFYjpxkidJ-1">
          <mxGeometry relative="1" as="geometry" />
        </mxCell>
        <mxCell id="RXBE-0DyEpsFYjpxkidJ-42" value="Context: Client" style="swimlane;whiteSpace=wrap;html=1;" vertex="1" parent="1">
          <mxGeometry x="-50" y="120" width="270" height="750" as="geometry" />
        </mxCell>
        <mxCell id="RXBE-0DyEpsFYjpxkidJ-17" value="&lt;div&gt;VO: Personal data&lt;/div&gt;" style="swimlane;childLayout=stackLayout;horizontal=1;startSize=50;horizontalStack=0;rounded=1;fontSize=14;fontStyle=0;strokeWidth=2;resizeParent=0;resizeLast=1;shadow=0;dashed=0;align=center;arcSize=4;whiteSpace=wrap;html=1;" vertex="1" parent="RXBE-0DyEpsFYjpxkidJ-42">
          <mxGeometry x="40" y="196" width="180" height="190" as="geometry" />
        </mxCell>
        <mxCell id="RXBE-0DyEpsFYjpxkidJ-18" value="&lt;div&gt;+Name&lt;br&gt;&lt;/div&gt;&lt;div&gt;+Surname&lt;/div&gt;+SSN&lt;br&gt;+Residential address&lt;br&gt;&lt;div&gt;+Mailing address&lt;/div&gt;&lt;div&gt;+E-mail&lt;/div&gt;&lt;div&gt;+Identification document data&lt;br&gt;&lt;/div&gt;&lt;div&gt;&lt;br&gt;&lt;/div&gt;" style="align=left;strokeColor=none;fillColor=none;spacingLeft=4;fontSize=12;verticalAlign=top;resizable=0;rotatable=0;part=1;html=1;" vertex="1" parent="RXBE-0DyEpsFYjpxkidJ-17">
          <mxGeometry y="50" width="180" height="140" as="geometry" />
        </mxCell>
        <mxCell id="RXBE-0DyEpsFYjpxkidJ-41" value="" style="shape=note;whiteSpace=wrap;html=1;backgroundOutline=1;darkOpacity=0.05;" vertex="1" parent="RXBE-0DyEpsFYjpxkidJ-17">
          <mxGeometry y="190" width="180" as="geometry" />
        </mxCell>
        <mxCell id="RXBE-0DyEpsFYjpxkidJ-1" value="Entity: Person" style="swimlane;fontStyle=0;childLayout=stackLayout;horizontal=1;startSize=26;horizontalStack=0;resizeParent=1;resizeParentMax=0;resizeLast=0;collapsible=1;marginBottom=0;align=center;fontSize=14;" vertex="1" parent="RXBE-0DyEpsFYjpxkidJ-42">
          <mxGeometry x="60" y="40" width="160" height="56" as="geometry" />
        </mxCell>
        <mxCell id="RXBE-0DyEpsFYjpxkidJ-2" value="&lt;div&gt;Personal data&lt;/div&gt;" style="text;strokeColor=none;fillColor=none;spacingLeft=4;spacingRight=4;overflow=hidden;rotatable=0;points=[[0,0.5],[1,0.5]];portConstraint=eastwest;fontSize=12;whiteSpace=wrap;html=1;" vertex="1" parent="RXBE-0DyEpsFYjpxkidJ-1">
          <mxGeometry y="26" width="160" height="30" as="geometry" />
        </mxCell>
        <mxCell id="RXBE-0DyEpsFYjpxkidJ-31" style="edgeStyle=orthogonalEdgeStyle;rounded=0;orthogonalLoop=1;jettySize=auto;html=1;" edge="1" parent="RXBE-0DyEpsFYjpxkidJ-42" source="RXBE-0DyEpsFYjpxkidJ-2" target="RXBE-0DyEpsFYjpxkidJ-17">
          <mxGeometry relative="1" as="geometry">
            <Array as="points" />
          </mxGeometry>
        </mxCell>
        <mxCell id="RXBE-0DyEpsFYjpxkidJ-107" style="edgeStyle=orthogonalEdgeStyle;rounded=0;orthogonalLoop=1;jettySize=auto;html=1;entryX=0.006;entryY=0.393;entryDx=0;entryDy=0;entryPerimeter=0;" edge="1" parent="RXBE-0DyEpsFYjpxkidJ-42" source="RXBE-0DyEpsFYjpxkidJ-99" target="RXBE-0DyEpsFYjpxkidJ-18">
          <mxGeometry relative="1" as="geometry">
            <Array as="points">
              <mxPoint x="130" y="408" />
              <mxPoint x="10" y="408" />
              <mxPoint x="10" y="303" />
              <mxPoint x="30" y="303" />
              <mxPoint x="30" y="301" />
            </Array>
          </mxGeometry>
        </mxCell>
        <mxCell id="RXBE-0DyEpsFYjpxkidJ-108" style="edgeStyle=orthogonalEdgeStyle;rounded=0;orthogonalLoop=1;jettySize=auto;html=1;entryX=0;entryY=0.5;entryDx=0;entryDy=0;" edge="1" parent="RXBE-0DyEpsFYjpxkidJ-42" source="RXBE-0DyEpsFYjpxkidJ-99" target="RXBE-0DyEpsFYjpxkidJ-18">
          <mxGeometry relative="1" as="geometry" />
        </mxCell>
        <mxCell id="RXBE-0DyEpsFYjpxkidJ-99" value="&lt;div&gt;VO: Address&lt;/div&gt;" style="swimlane;childLayout=stackLayout;horizontal=1;startSize=50;horizontalStack=0;rounded=1;fontSize=14;fontStyle=0;strokeWidth=2;resizeParent=0;resizeLast=1;shadow=0;dashed=0;align=center;arcSize=4;whiteSpace=wrap;html=1;" vertex="1" parent="RXBE-0DyEpsFYjpxkidJ-42">
          <mxGeometry x="40" y="430" width="180" height="150" as="geometry" />
        </mxCell>
        <mxCell id="RXBE-0DyEpsFYjpxkidJ-100" value="&lt;div&gt;+Country&lt;br&gt;&lt;/div&gt;&lt;div&gt;+City&lt;/div&gt;+Postal code&lt;br&gt;+Street&lt;br&gt;&lt;div&gt;+Street Number&lt;/div&gt;&lt;div&gt;+Flat number&lt;br&gt;&lt;/div&gt;" style="align=left;strokeColor=none;fillColor=none;spacingLeft=4;fontSize=12;verticalAlign=top;resizable=0;rotatable=0;part=1;html=1;" vertex="1" parent="RXBE-0DyEpsFYjpxkidJ-99">
          <mxGeometry y="50" width="180" height="140" as="geometry" />
        </mxCell>
        <mxCell id="RXBE-0DyEpsFYjpxkidJ-101" value="" style="shape=note;whiteSpace=wrap;html=1;backgroundOutline=1;darkOpacity=0.05;" vertex="1" parent="RXBE-0DyEpsFYjpxkidJ-99">
          <mxGeometry y="190" width="180" height="-40" as="geometry" />
        </mxCell>
        <mxCell id="RXBE-0DyEpsFYjpxkidJ-43" value="Context: Transfers" style="swimlane;whiteSpace=wrap;html=1;" vertex="1" parent="1">
          <mxGeometry x="540" y="120" width="460" height="580" as="geometry" />
        </mxCell>
        <mxCell id="RXBE-0DyEpsFYjpxkidJ-65" style="edgeStyle=orthogonalEdgeStyle;rounded=0;orthogonalLoop=1;jettySize=auto;html=1;" edge="1" parent="RXBE-0DyEpsFYjpxkidJ-43" source="RXBE-0DyEpsFYjpxkidJ-64" target="RXBE-0DyEpsFYjpxkidJ-13">
          <mxGeometry relative="1" as="geometry">
            <Array as="points">
              <mxPoint x="220" y="520" />
              <mxPoint x="220" y="148" />
            </Array>
          </mxGeometry>
        </mxCell>
        <mxCell id="RXBE-0DyEpsFYjpxkidJ-13" value="Entity: Transfer" style="swimlane;fontStyle=0;childLayout=stackLayout;horizontal=1;startSize=26;horizontalStack=0;resizeParent=1;resizeParentMax=0;resizeLast=0;collapsible=1;marginBottom=0;align=center;fontSize=14;" vertex="1" parent="RXBE-0DyEpsFYjpxkidJ-43">
          <mxGeometry x="30" y="30" width="160" height="206" as="geometry" />
        </mxCell>
        <mxCell id="RXBE-0DyEpsFYjpxkidJ-14" value="&lt;div&gt;Origin account&lt;/div&gt;" style="text;strokeColor=none;fillColor=none;spacingLeft=4;spacingRight=4;overflow=hidden;rotatable=0;points=[[0,0.5],[1,0.5]];portConstraint=eastwest;fontSize=12;whiteSpace=wrap;html=1;" vertex="1" parent="RXBE-0DyEpsFYjpxkidJ-13">
          <mxGeometry y="26" width="160" height="30" as="geometry" />
        </mxCell>
        <mxCell id="RXBE-0DyEpsFYjpxkidJ-15" value="Destination account" style="text;strokeColor=none;fillColor=none;spacingLeft=4;spacingRight=4;overflow=hidden;rotatable=0;points=[[0,0.5],[1,0.5]];portConstraint=eastwest;fontSize=12;whiteSpace=wrap;html=1;" vertex="1" parent="RXBE-0DyEpsFYjpxkidJ-13">
          <mxGeometry y="56" width="160" height="30" as="geometry" />
        </mxCell>
        <mxCell id="RXBE-0DyEpsFYjpxkidJ-33" value="&lt;div&gt;Amount&lt;/div&gt;" style="text;strokeColor=none;fillColor=none;spacingLeft=4;spacingRight=4;overflow=hidden;rotatable=0;points=[[0,0.5],[1,0.5]];portConstraint=eastwest;fontSize=12;whiteSpace=wrap;html=1;" vertex="1" parent="RXBE-0DyEpsFYjpxkidJ-13">
          <mxGeometry y="86" width="160" height="30" as="geometry" />
        </mxCell>
        <mxCell id="RXBE-0DyEpsFYjpxkidJ-34" value="Title" style="text;strokeColor=none;fillColor=none;spacingLeft=4;spacingRight=4;overflow=hidden;rotatable=0;points=[[0,0.5],[1,0.5]];portConstraint=eastwest;fontSize=12;whiteSpace=wrap;html=1;" vertex="1" parent="RXBE-0DyEpsFYjpxkidJ-13">
          <mxGeometry y="116" width="160" height="30" as="geometry" />
        </mxCell>
        <mxCell id="RXBE-0DyEpsFYjpxkidJ-35" value="&lt;div&gt;Order date&lt;/div&gt;" style="text;strokeColor=none;fillColor=none;spacingLeft=4;spacingRight=4;overflow=hidden;rotatable=0;points=[[0,0.5],[1,0.5]];portConstraint=eastwest;fontSize=12;whiteSpace=wrap;html=1;" vertex="1" parent="RXBE-0DyEpsFYjpxkidJ-13">
          <mxGeometry y="146" width="160" height="30" as="geometry" />
        </mxCell>
        <mxCell id="RXBE-0DyEpsFYjpxkidJ-36" value="&lt;div&gt;Completion date&lt;/div&gt;" style="text;strokeColor=none;fillColor=none;spacingLeft=4;spacingRight=4;overflow=hidden;rotatable=0;points=[[0,0.5],[1,0.5]];portConstraint=eastwest;fontSize=12;whiteSpace=wrap;html=1;" vertex="1" parent="RXBE-0DyEpsFYjpxkidJ-13">
          <mxGeometry y="176" width="160" height="30" as="geometry" />
        </mxCell>
        <mxCell id="RXBE-0DyEpsFYjpxkidJ-44" value="Entity: Standing Order" style="swimlane;fontStyle=0;childLayout=stackLayout;horizontal=1;startSize=26;horizontalStack=0;resizeParent=1;resizeParentMax=0;resizeLast=0;collapsible=1;marginBottom=0;align=center;fontSize=14;" vertex="1" parent="RXBE-0DyEpsFYjpxkidJ-43">
          <mxGeometry x="30" y="300" width="160" height="236" as="geometry" />
        </mxCell>
        <mxCell id="RXBE-0DyEpsFYjpxkidJ-45" value="&lt;div&gt;Origin account&lt;/div&gt;" style="text;strokeColor=none;fillColor=none;spacingLeft=4;spacingRight=4;overflow=hidden;rotatable=0;points=[[0,0.5],[1,0.5]];portConstraint=eastwest;fontSize=12;whiteSpace=wrap;html=1;" vertex="1" parent="RXBE-0DyEpsFYjpxkidJ-44">
          <mxGeometry y="26" width="160" height="30" as="geometry" />
        </mxCell>
        <mxCell id="RXBE-0DyEpsFYjpxkidJ-46" value="Destination account" style="text;strokeColor=none;fillColor=none;spacingLeft=4;spacingRight=4;overflow=hidden;rotatable=0;points=[[0,0.5],[1,0.5]];portConstraint=eastwest;fontSize=12;whiteSpace=wrap;html=1;" vertex="1" parent="RXBE-0DyEpsFYjpxkidJ-44">
          <mxGeometry y="56" width="160" height="30" as="geometry" />
        </mxCell>
        <mxCell id="RXBE-0DyEpsFYjpxkidJ-47" value="&lt;div&gt;Amount&lt;/div&gt;" style="text;strokeColor=none;fillColor=none;spacingLeft=4;spacingRight=4;overflow=hidden;rotatable=0;points=[[0,0.5],[1,0.5]];portConstraint=eastwest;fontSize=12;whiteSpace=wrap;html=1;" vertex="1" parent="RXBE-0DyEpsFYjpxkidJ-44">
          <mxGeometry y="86" width="160" height="30" as="geometry" />
        </mxCell>
        <mxCell id="RXBE-0DyEpsFYjpxkidJ-49" value="Title" style="text;strokeColor=none;fillColor=none;spacingLeft=4;spacingRight=4;overflow=hidden;rotatable=0;points=[[0,0.5],[1,0.5]];portConstraint=eastwest;fontSize=12;whiteSpace=wrap;html=1;" vertex="1" parent="RXBE-0DyEpsFYjpxkidJ-44">
          <mxGeometry y="116" width="160" height="30" as="geometry" />
        </mxCell>
        <mxCell id="RXBE-0DyEpsFYjpxkidJ-50" value="&lt;div&gt;Execution plan&lt;br&gt;&lt;/div&gt;" style="text;strokeColor=none;fillColor=none;spacingLeft=4;spacingRight=4;overflow=hidden;rotatable=0;points=[[0,0.5],[1,0.5]];portConstraint=eastwest;fontSize=12;whiteSpace=wrap;html=1;" vertex="1" parent="RXBE-0DyEpsFYjpxkidJ-44">
          <mxGeometry y="146" width="160" height="30" as="geometry" />
        </mxCell>
        <mxCell id="RXBE-0DyEpsFYjpxkidJ-63" value="&lt;div&gt;Next transfer&lt;/div&gt;" style="text;strokeColor=none;fillColor=none;spacingLeft=4;spacingRight=4;overflow=hidden;rotatable=0;points=[[0,0.5],[1,0.5]];portConstraint=eastwest;fontSize=12;whiteSpace=wrap;html=1;" vertex="1" parent="RXBE-0DyEpsFYjpxkidJ-44">
          <mxGeometry y="176" width="160" height="30" as="geometry" />
        </mxCell>
        <mxCell id="RXBE-0DyEpsFYjpxkidJ-64" value="&lt;div&gt;Historic transfers&lt;/div&gt;" style="text;strokeColor=none;fillColor=none;spacingLeft=4;spacingRight=4;overflow=hidden;rotatable=0;points=[[0,0.5],[1,0.5]];portConstraint=eastwest;fontSize=12;whiteSpace=wrap;html=1;" vertex="1" parent="RXBE-0DyEpsFYjpxkidJ-44">
          <mxGeometry y="206" width="160" height="30" as="geometry" />
        </mxCell>
        <mxCell id="RXBE-0DyEpsFYjpxkidJ-66" style="edgeStyle=orthogonalEdgeStyle;rounded=0;orthogonalLoop=1;jettySize=auto;html=1;" edge="1" parent="RXBE-0DyEpsFYjpxkidJ-43" source="RXBE-0DyEpsFYjpxkidJ-63" target="RXBE-0DyEpsFYjpxkidJ-13">
          <mxGeometry relative="1" as="geometry">
            <Array as="points">
              <mxPoint x="220" y="490" />
              <mxPoint x="220" y="148" />
            </Array>
          </mxGeometry>
        </mxCell>
        <mxCell id="RXBE-0DyEpsFYjpxkidJ-71" value="VO: Execution plan" style="swimlane;childLayout=stackLayout;horizontal=1;startSize=50;horizontalStack=0;rounded=1;fontSize=14;fontStyle=0;strokeWidth=2;resizeParent=0;resizeLast=1;shadow=0;dashed=0;align=center;arcSize=4;whiteSpace=wrap;html=1;" vertex="1" parent="RXBE-0DyEpsFYjpxkidJ-43">
          <mxGeometry x="270" y="401" width="160" height="120" as="geometry" />
        </mxCell>
        <mxCell id="RXBE-0DyEpsFYjpxkidJ-72" value="+Next occurence&lt;br&gt;+Repeat data&lt;br&gt;&lt;div&gt;+Remaining occurences&lt;/div&gt;&lt;div&gt;count&lt;/div&gt;" style="align=left;strokeColor=none;fillColor=none;spacingLeft=4;fontSize=12;verticalAlign=top;resizable=0;rotatable=0;part=1;html=1;" vertex="1" parent="RXBE-0DyEpsFYjpxkidJ-71">
          <mxGeometry y="50" width="160" height="70" as="geometry" />
        </mxCell>
        <mxCell id="RXBE-0DyEpsFYjpxkidJ-73" style="edgeStyle=orthogonalEdgeStyle;rounded=0;orthogonalLoop=1;jettySize=auto;html=1;" edge="1" parent="RXBE-0DyEpsFYjpxkidJ-43" source="RXBE-0DyEpsFYjpxkidJ-50" target="RXBE-0DyEpsFYjpxkidJ-71">
          <mxGeometry relative="1" as="geometry" />
        </mxCell>
        <mxCell id="RXBE-0DyEpsFYjpxkidJ-77" value="VO: Amount" style="swimlane;childLayout=stackLayout;horizontal=1;startSize=50;horizontalStack=0;rounded=1;fontSize=14;fontStyle=0;strokeWidth=2;resizeParent=0;resizeLast=1;shadow=0;dashed=0;align=center;arcSize=4;whiteSpace=wrap;html=1;" vertex="1" parent="RXBE-0DyEpsFYjpxkidJ-43">
          <mxGeometry x="270" y="240" width="160" height="90" as="geometry" />
        </mxCell>
        <mxCell id="RXBE-0DyEpsFYjpxkidJ-78" value="+Value&lt;br&gt;+Currency" style="align=left;strokeColor=none;fillColor=none;spacingLeft=4;fontSize=12;verticalAlign=top;resizable=0;rotatable=0;part=1;html=1;" vertex="1" parent="RXBE-0DyEpsFYjpxkidJ-77">
          <mxGeometry y="50" width="160" height="40" as="geometry" />
        </mxCell>
        <mxCell id="RXBE-0DyEpsFYjpxkidJ-79" style="edgeStyle=orthogonalEdgeStyle;rounded=0;orthogonalLoop=1;jettySize=auto;html=1;" edge="1" parent="RXBE-0DyEpsFYjpxkidJ-43" source="RXBE-0DyEpsFYjpxkidJ-47" target="RXBE-0DyEpsFYjpxkidJ-77">
          <mxGeometry relative="1" as="geometry">
            <Array as="points">
              <mxPoint x="230" y="401" />
              <mxPoint x="230" y="290" />
            </Array>
          </mxGeometry>
        </mxCell>
        <mxCell id="RXBE-0DyEpsFYjpxkidJ-80" style="edgeStyle=orthogonalEdgeStyle;rounded=0;orthogonalLoop=1;jettySize=auto;html=1;" edge="1" parent="RXBE-0DyEpsFYjpxkidJ-43" source="RXBE-0DyEpsFYjpxkidJ-33" target="RXBE-0DyEpsFYjpxkidJ-77">
          <mxGeometry relative="1" as="geometry">
            <Array as="points">
              <mxPoint x="230" y="131" />
              <mxPoint x="230" y="285" />
            </Array>
          </mxGeometry>
        </mxCell>
        <mxCell id="RXBE-0DyEpsFYjpxkidJ-68" value="Context: Ownership" style="swimlane;whiteSpace=wrap;html=1;" vertex="1" parent="1">
          <mxGeometry x="250" y="120" width="270" height="740" as="geometry" />
        </mxCell>
        <mxCell id="RXBE-0DyEpsFYjpxkidJ-28" value="&lt;div&gt;VO: Login data&lt;/div&gt;" style="swimlane;childLayout=stackLayout;horizontal=1;startSize=50;horizontalStack=0;rounded=1;fontSize=14;fontStyle=0;strokeWidth=2;resizeParent=0;resizeLast=1;shadow=0;dashed=0;align=center;arcSize=4;whiteSpace=wrap;html=1;" vertex="1" parent="RXBE-0DyEpsFYjpxkidJ-68">
          <mxGeometry x="60" y="340" width="180" height="160" as="geometry" />
        </mxCell>
        <mxCell id="RXBE-0DyEpsFYjpxkidJ-29" value="&lt;div&gt;+Login&lt;/div&gt;&lt;div&gt;+Password&lt;/div&gt;&lt;div&gt;+2FA method data&lt;br&gt;&lt;/div&gt;&lt;div&gt;+Recovery method data&lt;br&gt;&lt;/div&gt;" style="align=left;strokeColor=none;fillColor=none;spacingLeft=4;fontSize=12;verticalAlign=top;resizable=0;rotatable=0;part=1;html=1;" vertex="1" parent="RXBE-0DyEpsFYjpxkidJ-28">
          <mxGeometry y="50" width="180" height="110" as="geometry" />
        </mxCell>
        <mxCell id="RXBE-0DyEpsFYjpxkidJ-5" value="Entity: Bank Account" style="swimlane;fontStyle=0;childLayout=stackLayout;horizontal=1;startSize=26;horizontalStack=0;resizeParent=1;resizeParentMax=0;resizeLast=0;collapsible=1;marginBottom=0;align=center;fontSize=14;" vertex="1" parent="RXBE-0DyEpsFYjpxkidJ-68">
          <mxGeometry x="70" y="53" width="160" height="210" as="geometry" />
        </mxCell>
        <mxCell id="RXBE-0DyEpsFYjpxkidJ-6" value="&lt;div&gt;Account Number&lt;/div&gt;" style="text;strokeColor=none;fillColor=none;spacingLeft=4;spacingRight=4;overflow=hidden;rotatable=0;points=[[0,0.5],[1,0.5]];portConstraint=eastwest;fontSize=12;whiteSpace=wrap;html=1;" vertex="1" parent="RXBE-0DyEpsFYjpxkidJ-5">
          <mxGeometry y="26" width="160" height="30" as="geometry" />
        </mxCell>
        <mxCell id="RXBE-0DyEpsFYjpxkidJ-7" value="&lt;div&gt;Owner&lt;/div&gt;" style="text;strokeColor=none;fillColor=none;spacingLeft=4;spacingRight=4;overflow=hidden;rotatable=0;points=[[0,0.5],[1,0.5]];portConstraint=eastwest;fontSize=12;whiteSpace=wrap;html=1;" vertex="1" parent="RXBE-0DyEpsFYjpxkidJ-5">
          <mxGeometry y="56" width="160" height="30" as="geometry" />
        </mxCell>
        <mxCell id="RXBE-0DyEpsFYjpxkidJ-8" value="History" style="text;strokeColor=none;fillColor=none;spacingLeft=4;spacingRight=4;overflow=hidden;rotatable=0;points=[[0,0.5],[1,0.5]];portConstraint=eastwest;fontSize=12;whiteSpace=wrap;html=1;" vertex="1" parent="RXBE-0DyEpsFYjpxkidJ-5">
          <mxGeometry y="86" width="160" height="34" as="geometry" />
        </mxCell>
        <mxCell id="RXBE-0DyEpsFYjpxkidJ-52" value="Standing Orders" style="text;strokeColor=none;fillColor=none;spacingLeft=4;spacingRight=4;overflow=hidden;rotatable=0;points=[[0,0.5],[1,0.5]];portConstraint=eastwest;fontSize=12;whiteSpace=wrap;html=1;" vertex="1" parent="RXBE-0DyEpsFYjpxkidJ-5">
          <mxGeometry y="120" width="160" height="30" as="geometry" />
        </mxCell>
        <mxCell id="RXBE-0DyEpsFYjpxkidJ-54" value="&lt;div&gt;Balance&lt;/div&gt;" style="text;strokeColor=none;fillColor=none;spacingLeft=4;spacingRight=4;overflow=hidden;rotatable=0;points=[[0,0.5],[1,0.5]];portConstraint=eastwest;fontSize=12;whiteSpace=wrap;html=1;" vertex="1" parent="RXBE-0DyEpsFYjpxkidJ-5">
          <mxGeometry y="150" width="160" height="30" as="geometry" />
        </mxCell>
        <mxCell id="RXBE-0DyEpsFYjpxkidJ-67" value="Login data" style="text;strokeColor=none;fillColor=none;spacingLeft=4;spacingRight=4;overflow=hidden;rotatable=0;points=[[0,0.5],[1,0.5]];portConstraint=eastwest;fontSize=12;whiteSpace=wrap;html=1;" vertex="1" parent="RXBE-0DyEpsFYjpxkidJ-5">
          <mxGeometry y="180" width="160" height="30" as="geometry" />
        </mxCell>
        <mxCell id="RXBE-0DyEpsFYjpxkidJ-32" style="edgeStyle=orthogonalEdgeStyle;rounded=0;orthogonalLoop=1;jettySize=auto;html=1;" edge="1" parent="RXBE-0DyEpsFYjpxkidJ-68" source="RXBE-0DyEpsFYjpxkidJ-67" target="RXBE-0DyEpsFYjpxkidJ-28">
          <mxGeometry relative="1" as="geometry">
            <mxPoint x="-190" y="270" as="sourcePoint" />
            <Array as="points">
              <mxPoint x="150" y="310" />
              <mxPoint x="150" y="310" />
            </Array>
          </mxGeometry>
        </mxCell>
        <mxCell id="RXBE-0DyEpsFYjpxkidJ-87" value="Entity: Credit Card" style="swimlane;fontStyle=0;childLayout=stackLayout;horizontal=1;startSize=26;horizontalStack=0;resizeParent=1;resizeParentMax=0;resizeLast=0;collapsible=1;marginBottom=0;align=center;fontSize=14;" vertex="1" parent="RXBE-0DyEpsFYjpxkidJ-68">
          <mxGeometry x="60" y="530" width="160" height="176" as="geometry" />
        </mxCell>
        <mxCell id="RXBE-0DyEpsFYjpxkidJ-88" value="&lt;div&gt;Account Number&lt;/div&gt;" style="text;strokeColor=none;fillColor=none;spacingLeft=4;spacingRight=4;overflow=hidden;rotatable=0;points=[[0,0.5],[1,0.5]];portConstraint=eastwest;fontSize=12;whiteSpace=wrap;html=1;" vertex="1" parent="RXBE-0DyEpsFYjpxkidJ-87">
          <mxGeometry y="26" width="160" height="30" as="geometry" />
        </mxCell>
        <mxCell id="RXBE-0DyEpsFYjpxkidJ-89" value="&lt;div&gt;Owner&lt;/div&gt;" style="text;strokeColor=none;fillColor=none;spacingLeft=4;spacingRight=4;overflow=hidden;rotatable=0;points=[[0,0.5],[1,0.5]];portConstraint=eastwest;fontSize=12;whiteSpace=wrap;html=1;" vertex="1" parent="RXBE-0DyEpsFYjpxkidJ-87">
          <mxGeometry y="56" width="160" height="30" as="geometry" />
        </mxCell>
        <mxCell id="RXBE-0DyEpsFYjpxkidJ-96" value="&lt;div&gt;Card Number&lt;br&gt;&lt;/div&gt;" style="text;strokeColor=none;fillColor=none;spacingLeft=4;spacingRight=4;overflow=hidden;rotatable=0;points=[[0,0.5],[1,0.5]];portConstraint=eastwest;fontSize=12;whiteSpace=wrap;html=1;" vertex="1" parent="RXBE-0DyEpsFYjpxkidJ-87">
          <mxGeometry y="86" width="160" height="30" as="geometry" />
        </mxCell>
        <mxCell id="RXBE-0DyEpsFYjpxkidJ-93" value="&lt;div&gt;Security Number&lt;/div&gt;" style="text;strokeColor=none;fillColor=none;spacingLeft=4;spacingRight=4;overflow=hidden;rotatable=0;points=[[0,0.5],[1,0.5]];portConstraint=eastwest;fontSize=12;whiteSpace=wrap;html=1;" vertex="1" parent="RXBE-0DyEpsFYjpxkidJ-87">
          <mxGeometry y="116" width="160" height="30" as="geometry" />
        </mxCell>
        <mxCell id="RXBE-0DyEpsFYjpxkidJ-95" value="&lt;div&gt;Expiration date&lt;/div&gt;" style="text;strokeColor=none;fillColor=none;spacingLeft=4;spacingRight=4;overflow=hidden;rotatable=0;points=[[0,0.5],[1,0.5]];portConstraint=eastwest;fontSize=12;whiteSpace=wrap;html=1;" vertex="1" parent="RXBE-0DyEpsFYjpxkidJ-87">
          <mxGeometry y="146" width="160" height="30" as="geometry" />
        </mxCell>
        <mxCell id="RXBE-0DyEpsFYjpxkidJ-97" style="edgeStyle=orthogonalEdgeStyle;rounded=0;orthogonalLoop=1;jettySize=auto;html=1;" edge="1" parent="RXBE-0DyEpsFYjpxkidJ-68" source="RXBE-0DyEpsFYjpxkidJ-88" target="RXBE-0DyEpsFYjpxkidJ-5">
          <mxGeometry relative="1" as="geometry">
            <Array as="points">
              <mxPoint x="10" y="571" />
              <mxPoint x="10" y="158" />
            </Array>
          </mxGeometry>
        </mxCell>
        <mxCell id="RXBE-0DyEpsFYjpxkidJ-39" style="edgeStyle=orthogonalEdgeStyle;rounded=0;orthogonalLoop=1;jettySize=auto;html=1;" edge="1" parent="1" source="RXBE-0DyEpsFYjpxkidJ-8" target="RXBE-0DyEpsFYjpxkidJ-13">
          <mxGeometry relative="1" as="geometry" />
        </mxCell>
        <mxCell id="RXBE-0DyEpsFYjpxkidJ-53" style="edgeStyle=orthogonalEdgeStyle;rounded=0;orthogonalLoop=1;jettySize=auto;html=1;" edge="1" parent="1" source="RXBE-0DyEpsFYjpxkidJ-52" target="RXBE-0DyEpsFYjpxkidJ-44">
          <mxGeometry relative="1" as="geometry">
            <Array as="points">
              <mxPoint x="500" y="308" />
              <mxPoint x="500" y="553" />
            </Array>
          </mxGeometry>
        </mxCell>
        <mxCell id="RXBE-0DyEpsFYjpxkidJ-75" style="edgeStyle=orthogonalEdgeStyle;rounded=0;orthogonalLoop=1;jettySize=auto;html=1;" edge="1" parent="1" source="RXBE-0DyEpsFYjpxkidJ-46" target="RXBE-0DyEpsFYjpxkidJ-5">
          <mxGeometry relative="1" as="geometry">
            <Array as="points">
              <mxPoint x="560" y="491" />
              <mxPoint x="560" y="370" />
            </Array>
          </mxGeometry>
        </mxCell>
        <mxCell id="RXBE-0DyEpsFYjpxkidJ-76" style="edgeStyle=orthogonalEdgeStyle;rounded=0;orthogonalLoop=1;jettySize=auto;html=1;" edge="1" parent="1" source="RXBE-0DyEpsFYjpxkidJ-45" target="RXBE-0DyEpsFYjpxkidJ-5">
          <mxGeometry relative="1" as="geometry">
            <Array as="points">
              <mxPoint x="560" y="461" />
              <mxPoint x="560" y="370" />
            </Array>
          </mxGeometry>
        </mxCell>
        <mxCell id="RXBE-0DyEpsFYjpxkidJ-85" style="edgeStyle=orthogonalEdgeStyle;rounded=0;orthogonalLoop=1;jettySize=auto;html=1;" edge="1" parent="1" source="RXBE-0DyEpsFYjpxkidJ-15" target="RXBE-0DyEpsFYjpxkidJ-5">
          <mxGeometry relative="1" as="geometry">
            <Array as="points">
              <mxPoint x="525" y="221" />
              <mxPoint x="525" y="190" />
            </Array>
          </mxGeometry>
        </mxCell>
        <mxCell id="RXBE-0DyEpsFYjpxkidJ-86" style="edgeStyle=orthogonalEdgeStyle;rounded=0;orthogonalLoop=1;jettySize=auto;html=1;" edge="1" parent="1" source="RXBE-0DyEpsFYjpxkidJ-14" target="RXBE-0DyEpsFYjpxkidJ-5">
          <mxGeometry relative="1" as="geometry">
            <Array as="points">
              <mxPoint x="500" y="191" />
              <mxPoint x="500" y="191" />
            </Array>
          </mxGeometry>
        </mxCell>
        <mxCell id="RXBE-0DyEpsFYjpxkidJ-98" style="edgeStyle=orthogonalEdgeStyle;rounded=0;orthogonalLoop=1;jettySize=auto;html=1;" edge="1" parent="1" source="RXBE-0DyEpsFYjpxkidJ-89" target="RXBE-0DyEpsFYjpxkidJ-2">
          <mxGeometry relative="1" as="geometry">
            <Array as="points">
              <mxPoint x="190" y="721" />
              <mxPoint x="190" y="201" />
            </Array>
          </mxGeometry>
        </mxCell>
      </root>
    </mxGraphModel>
  </diagram>
</mxfile>
